<svg width="68" height="100" fill="none" xmlns="http://www.w3.org/2000/svg"><path d="M56.234 42.857H12.349c-1.163 0-2.28-.502-3.103-1.394-.823-.893-1.285-2.105-1.285-3.368v-9.523c0-.877.655-1.588 1.463-1.588h49.735c.388 0 .76.167 1.035.465.274.298.428.702.428 1.123v9.523c0 1.263-.462 2.475-1.285 3.368-.823.892-1.94 1.394-3.103 1.394zM10.886 30.16v7.936c0 .421.155.825.429 1.123.274.297.646.465 1.034.465h43.885c.388 0 .76-.168 1.034-.465.274-.298.428-.702.428-1.123V30.16h-46.81z" fill="#424B25"/><path d="M56.234 100H12.349c-.521-.001-1.003-.303-1.263-.794-.426-.793-10.44-19.562-10.44-32.54-.009-3.796.94-7.523 2.746-10.775 1.805-3.252 4.397-5.905 7.495-7.67V41.27h2.925v7.937c0 .634-.348 1.208-.886 1.458-2.794 1.435-5.155 3.7-6.81 6.533-1.656 2.832-2.538 6.115-2.543 9.469 0 10.706 7.744 26.476 9.63 30.159H55.38c1.886-3.683 9.63-19.463 9.63-30.16-.006-3.355-.89-6.639-2.546-9.471-1.657-2.833-4.02-5.098-6.816-6.532-.533-.252-.878-.825-.877-1.457V41.27h2.925v6.952c3.098 1.765 5.69 4.418 7.495 7.67 1.805 3.252 2.755 6.979 2.745 10.775 0 12.977-10.013 31.746-10.439 32.54-.26.49-.742.793-1.264.794z" fill="#424B25"/><path d="M51.845 92.064H16.738c-.616 0-1.165-.418-1.376-1.045-.233-.724-5.938-17.818-5.938-25.94.015-2.625.869-5.165 2.416-7.185 1.547-2.02 3.692-3.396 6.068-3.893.096-.022.194-.033.293-.032h32.181c.1-.001.197.01.293.032 2.377.497 4.521 1.872 6.068 3.893 1.547 2.02 2.4 4.56 2.416 7.186 0 8.122-5.705 25.215-5.938 25.939-.211.627-.76 1.044-1.376 1.044zm-34.072-3.175H50.81c1.24-3.85 5.423-17.33 5.423-23.81-.013-1.87-.617-3.677-1.712-5.121-1.094-1.445-2.61-2.438-4.298-2.815h-31.86c-1.682.387-3.194 1.384-4.287 2.826-1.093 1.442-1.702 3.244-1.728 5.11 0 6.48 4.184 19.96 5.423 23.81h.002z" fill="#424B25"/><path d="M43.068 92.064H25.515c-.808 0-1.463-.711-1.463-1.588v-9.524c0-.876.655-1.587 1.463-1.587h17.553c.388 0 .76.167 1.035.465.274.298.428.701.428 1.122v9.524c0 .421-.154.825-.428 1.123a1.407 1.407 0 0 1-1.035.465zm-16.09-3.175h14.627v-6.35H26.977v6.35zM34.291 76.19c-1.551 0-3.04-.668-4.137-1.859-1.097-1.191-1.714-2.806-1.714-4.49 0-3.08 3.967-8.035 4.763-8.996a1.455 1.455 0 0 1 1.088-.504c.411 0 .804.182 1.089.504.795.961 4.763 5.915 4.763 8.996 0 1.684-.617 3.299-1.714 4.49-1.098 1.19-2.586 1.86-4.138 1.86zm0-11.826c-1.552 2.104-2.925 4.466-2.925 5.477 0 1.135.558 2.183 1.463 2.75.905.567 2.02.567 2.925 0 .905-.567 1.463-1.615 1.463-2.75 0-.984-1.372-3.363-2.925-5.477z" fill="#424B25"/><path d="M32.829 74.603h2.925v6.35H32.83v-6.35zM26.977 19.048h-2.925c0-.892-.318-1.27-1.035-2.052-1.196-1.05-1.89-2.629-1.89-4.298 0-1.668.694-3.248 1.89-4.297.717-.782 1.035-1.16 1.035-2.052 0-.892-.318-1.27-1.035-2.052-1.182-1.06-1.874-2.632-1.89-4.297h2.925c0 .892.317 1.27 1.034 2.052 1.182 1.06 1.875 2.633 1.891 4.297-.017 1.665-.709 3.236-1.89 4.297-.718.783-1.035 1.16-1.035 2.052 0 .893.317 1.27 1.034 2.053 1.182 1.06 1.875 2.632 1.891 4.297zM37.217 19.048h-2.926c0-.892-.317-1.27-1.034-2.052-1.196-1.05-1.891-2.629-1.891-4.298 0-1.668.695-3.248 1.891-4.297.717-.782 1.034-1.16 1.034-2.052 0-.892-.317-1.27-1.034-2.052-1.182-1.06-1.874-2.632-1.891-4.297h2.925c0 .892.318 1.27 1.035 2.052 1.182 1.06 1.874 2.633 1.891 4.297-.017 1.665-.71 3.236-1.891 4.297-.717.783-1.035 1.16-1.035 2.052 0 .893.318 1.27 1.035 2.053 1.182 1.06 1.874 2.632 1.891 4.297zM47.457 19.048H44.53c0-.892-.317-1.27-1.034-2.052-1.197-1.05-1.891-2.629-1.891-4.298 0-1.668.694-3.248 1.89-4.297.718-.782 1.035-1.16 1.035-2.052 0-.892-.317-1.27-1.034-2.052-1.182-1.06-1.874-2.632-1.891-4.297h2.925c0 .892.318 1.27 1.035 2.052 1.182 1.06 1.874 2.633 1.89 4.297-.016 1.665-.708 3.236-1.89 4.297-.717.783-1.035 1.16-1.035 2.052 0 .893.318 1.27 1.035 2.053 1.182 1.06 1.874 2.632 1.89 4.297zM9.424 33.333H54.77v3.175H9.424v-3.175z" fill="#424B25"/></svg>