<svg width="90" height="100" fill="none" xmlns="http://www.w3.org/2000/svg"><path d="M73.402 58.678H67.69c-.736 0-1.333-.648-1.333-1.446V50c0-2.507 1.879-4.546 4.189-4.546s4.189 2.04 4.189 4.546v7.23c0 .8-.597 1.447-1.333 1.447zm-4.38-2.892h3.047V50c0-.912-.683-1.653-1.523-1.653-.84 0-1.523.741-1.523 1.653v5.785zM40.082 100h-.203c-7.345-.057-14.277-3.206-19.518-8.866-5.243-5.66-8.178-13.167-8.266-21.136-.116-10.587 4.732-20.307 12.969-26 4.992-3.452 7.974-9.317 7.974-15.691 0-.798.597-1.446 1.332-1.446h11.425c.735 0 1.332.648 1.332 1.446 0 6.387 2.966 12.242 7.933 15.662 4.448 3.063 7.998 7.4 10.272 12.545.112.211.176.457.176.718 0 .767-.55 1.394-1.245 1.443v3.31h1.86c.626 0 1.168.473 1.302 1.137.049.244.097.489.14.734.07.4-.017.815-.243 1.141l-4.962 7.18v15.345c0 .325-.1.64-.286.896C56.726 95.778 48.71 100 40.084 100h-.002zm-4.424-70.248c-.418 6.801-3.777 12.962-9.163 16.684-7.453 5.152-11.84 13.947-11.735 23.528C14.923 84.824 26.2 97 39.898 97.107h.183c7.654 0 14.775-3.672 19.612-10.093v-15.32c0-.312.094-.617.267-.867l4.113-5.95H62.93c-.736 0-1.333-.648-1.333-1.447v-6.198c0-.468.204-.883.522-1.148-2.05-3.922-4.956-7.24-8.488-9.672-5.365-3.694-8.71-9.845-9.127-16.66h-8.846z" fill="#424B25"/><path d="M74.925 100h-8.758c-3.57 0-6.474-3.152-6.474-7.025V71.694c0-.799.597-1.447 1.333-1.447h19.04c.737 0 1.334.648 1.334 1.447v21.281c0 3.873-2.905 7.025-6.474 7.025zM62.358 73.14v19.835c0 2.278 1.709 4.132 3.809 4.132h8.758c2.1 0 3.808-1.854 3.808-4.132V73.14H62.358z" fill="#424B25"/><path d="M80.066 73.14H61.025c-.505 0-.967-.309-1.193-.799a1.55 1.55 0 0 1 .126-1.515l5.712-8.264a1.301 1.301 0 0 1 1.067-.579h7.616a1.3 1.3 0 0 1 1.066.579l5.712 8.264a1.55 1.55 0 0 1 .126 1.515c-.226.49-.688.8-1.192.8zM63.69 70.248h13.71l-3.714-5.372h-6.283l-3.713 5.372z" fill="#424B25"/><path d="M78.163 64.876H62.931c-.736 0-1.333-.648-1.333-1.446V57.23c0-.798.597-1.446 1.333-1.446h15.232c.736 0 1.333.648 1.333 1.447v6.198c0 .798-.597 1.446-1.333 1.446zm-13.9-2.893H76.83v-3.305H64.263v3.306zM87.682 100H2c-.736 0-1.333-.648-1.333-1.446 0-.799.597-1.447 1.333-1.447h85.682c.736 0 1.333.648 1.333 1.447 0 .798-.597 1.446-1.333 1.446zM43.89 29.752h-7.617c-.736 0-1.333-.648-1.333-1.446v-6.41c-1.235 1.066-2.773 1.658-4.379 1.658-1.904 0-3.681-.812-4.998-2.257a7.359 7.359 0 0 1-1.666.19c-4.41 0-7.997-3.892-7.997-8.677s3.587-8.678 7.997-8.678c1.872 0 3.677.723 5.097 1.996 1.657-2.517 4.349-4.062 7.28-4.062 2.047 0 3.987.745 5.552 2.094C43.255 1.633 45.832 0 48.65 0c3.598 0 6.641 2.555 7.645 6.12 1.276-1.253 2.959-1.988 4.73-1.988 3.885 0 7.046 3.43 7.046 7.645s-3.16 7.644-7.045 7.644a6.579 6.579 0 0 1-3.524-1.02c-1.53 3.11-4.559 5.152-7.9 5.152a8.405 8.405 0 0 1-4.38-1.243v5.995c0 .799-.597 1.447-1.333 1.447zm-6.284-2.892h4.95v-7.552c0-.601.344-1.14.862-1.353.52-.212 1.105-.054 1.471.397 1.194 1.467 2.911 2.31 4.712 2.31 2.799 0 5.285-2.04 6.046-4.96.13-.498.494-.883.956-1.01.462-.126.951.024 1.283.395.832.93 1.947 1.442 3.14 1.442 2.415 0 4.38-2.132 4.38-4.752 0-2.62-1.965-4.752-4.38-4.752-1.686 0-3.241 1.07-3.963 2.727-.203.467-.62.78-1.095.823a1.299 1.299 0 0 1-1.205-.616 6.67 6.67 0 0 0-.456-.63 1.517 1.517 0 0 1-.333-.897c-.119-3.106-2.458-5.539-5.324-5.539-2.357 0-4.463 1.714-5.12 4.17-.138.52-.534.911-1.024 1.015-.49.104-.992-.098-1.301-.522-1.202-1.65-3-2.597-4.932-2.597-2.519 0-4.786 1.627-5.778 4.143-.188.477-.598.809-1.073.868-.475.06-.944-.162-1.227-.58-1.002-1.48-2.609-2.365-4.298-2.365-2.94 0-5.331 2.595-5.331 5.785s2.391 5.785 5.331 5.785c.577 0 1.149-.1 1.697-.3.541-.198 1.138 0 1.484.493.837 1.19 2.107 1.873 3.483 1.873 1.29 0 2.51-.614 3.345-1.686.307-.394.784-.58 1.252-.489.374.073.749.11 1.115.11.736 0 1.333.647 1.333 1.446v6.818zM40.082 91.736c-11.234 0-20.373-9.918-20.373-22.107 0-.799.597-1.447 1.333-1.447s1.333.648 1.333 1.447c0 10.594 7.944 19.214 17.708 19.214.735 0 1.333.648 1.333 1.447 0 .798-.598 1.446-1.333 1.446zM40.082 66.942c-2.835 0-5.14-2.502-5.14-5.578 0-3.076 2.305-5.578 5.14-5.578 2.835 0 5.141 2.502 5.141 5.578 0 3.076-2.306 5.578-5.14 5.578zm0-8.264c-1.365 0-2.475 1.205-2.475 2.686 0 1.481 1.11 2.686 2.475 2.686s2.475-1.205 2.475-2.686c0-1.48-1.11-2.686-2.475-2.686zM48.65 87.602c-3.36 0-6.092-2.965-6.092-6.611s2.733-6.612 6.093-6.612 6.093 2.966 6.093 6.612-2.733 6.611-6.093 6.611zm0-10.33c-1.889 0-3.427 1.668-3.427 3.719 0 2.05 1.538 3.719 3.428 3.719s3.427-1.668 3.427-3.72c0-2.05-1.538-3.718-3.427-3.718zM80.066 89.669H66.738c-.736 0-1.333-.648-1.333-1.446 0-.799.597-1.447 1.333-1.447h13.328c.736 0 1.333.648 1.333 1.447 0 .798-.597 1.446-1.333 1.446z" fill="#424B25"/></svg>