<svg width="80" height="100" fill="none" xmlns="http://www.w3.org/2000/svg"><path d="M21.826 50.17H52.65v16.725h3.083V40.137c-.003-1.774-.653-3.474-1.808-4.729-1.156-1.253-2.723-1.959-4.357-1.96h-1.542v-3.346h1.542c.408 0 .8-.176 1.09-.49.288-.313.45-.738.45-1.182V18.396c0-.444-.161-.87-.45-1.183a1.483 1.483 0 0 0-1.09-.49h-6.165V6.69c0-2.39-1.175-4.598-3.083-5.793a5.75 5.75 0 0 0-6.164 0c-1.908 1.195-3.083 3.403-3.083 5.793v10.034h-6.165c-.85 0-1.541.75-1.541 1.673V28.43c0 .444.162.869.451 1.183.29.313.682.49 1.09.49h1.541v3.344h-1.54c-1.636.002-3.202.708-4.358 1.961-1.155 1.255-1.805 2.955-1.808 4.729v41.809h3.083V50.17zm12.33-43.48c0-1.196.587-2.3 1.54-2.898a2.875 2.875 0 0 1 3.083 0c.954.598 1.541 1.702 1.541 2.897v10.034h-6.164V6.69zM26.45 20.067h21.576v6.69H26.45v-6.69zm3.082 10.034h15.412v3.345H29.532v-3.345zm-4.624 6.69h24.66c.817 0 1.6.354 2.178.98.578.628.903 1.478.904 2.365v6.69H21.826v-6.69c0-.887.326-1.737.904-2.364.578-.627 1.36-.98 2.178-.981zM79.696 80.126c-.29-1.745-1.208-3.294-2.55-4.306-1.342-1.012-3-1.405-4.609-1.093l-9.1 1.777-1.092-6.584a1.69 1.69 0 0 0-.637-1.077 1.447 1.447 0 0 0-1.153-.273l-9.101 1.777c-.402.078-.76.327-.993.692a1.786 1.786 0 0 0-.251 1.25l.272 1.646-4.55.888c-.838.164-1.395 1.034-1.244 1.942l.555 3.345-40.76 9.489c-1.535.357-2.806 1.516-3.394 3.095a5.507 5.507 0 0 0 .46 4.784c.875 1.414 2.34 2.263 3.909 2.27.233 0 .466-.02.698-.056l41.253-6.522.555 3.346h-.001c.073.436.302.824.638 1.077.335.253.75.351 1.152.273l4.55-.888.273 1.645c.072.437.302.824.637 1.077.336.253.751.352 1.154.273l9.1-1.777c.838-.164 1.395-1.033 1.244-1.942l-1.09-6.583 9.1-1.777c1.61-.315 3.037-1.31 3.97-2.766.933-1.457 1.295-3.256 1.006-5.003v.001zM5.711 96.383c-.879.139-1.7-.503-1.858-1.451-.157-.948.407-1.86 1.275-2.062l40.662-9.465 1.073 6.472-41.152 6.506zm45.014-2.105-2.729-16.46 3.034-.592 2.729 16.46-3.034.592zm6.613 2.107-3.82-23.042 6.068-1.184 3.82 23.042-6.068 1.184zM76.161 83.22c-.465.73-1.18 1.228-1.985 1.383l-9.101 1.777-1.092-6.584 9.101-1.776h.001a2.892 2.892 0 0 1 2.304.545c.671.507 1.13 1.281 1.275 2.155a3.573 3.573 0 0 1-.504 2.5z" fill="#424B25"/><path d="M37.238 55.188c-.457 0-.89.22-1.183.6-1.09 1.416-6.523 8.685-6.523 12.779 0 2.987 1.469 5.748 3.853 7.241a7.185 7.185 0 0 0 7.706 0c2.384-1.493 3.853-4.254 3.853-7.241 0-4.094-5.433-11.363-6.523-12.779-.293-.38-.726-.6-1.183-.6zm4.624 13.379c0 1.792-.882 3.448-2.312 4.345a4.313 4.313 0 0 1-4.624 0c-1.43-.897-2.312-2.553-2.312-4.345 0-1.795 2.42-5.903 4.624-9.026 2.205 3.123 4.624 7.23 4.624 9.026zM46.486 53.515h3.082v3.345h-3.082v-3.345z" fill="#424B25"/></svg>