<svg width="45" height="50" fill="none" xmlns="http://www.w3.org/2000/svg"><path d="M9.813 47.439a1.963 1.963 0 1 0 0-3.925 1.963 1.963 0 0 0 0 3.925zM23.551 47.439a1.963 1.963 0 1 0 0-3.925 1.963 1.963 0 0 0 0 3.925zM27.476 24.87H5.711l-.805-4.122a.982.982 0 0 0-.98-.785H0v1.962h3.12l3.75 18.841a.981.981 0 0 0 .98.785h17.664V39.59H8.655l-.805-3.926h17.664a.981.981 0 0 0 .981-.765l1.963-8.832a.98.98 0 0 0-.982-1.197zM24.73 33.7H7.477l-1.373-6.868H26.25L24.729 33.7zM35.067 28.253c.718 0 1.187-.542 1.187-1.26v-5.141h4.849c.717 0 1.26-.47 1.26-1.187 0-.718-.543-1.186-1.26-1.186h-4.85v-5.157c0-.717-.468-1.26-1.186-1.26-.717 0-1.186.543-1.186 1.26v5.157h-4.863c-.718 0-1.26.468-1.26 1.186s.542 1.187 1.26 1.187h4.863v5.141c0 .718.469 1.26 1.186 1.26z" fill="#1F2937"/></svg>