<svg width="24" height="24" fill="none" xmlns="http://www.w3.org/2000/svg"><g clip-path="url(#a)"><path fill-rule="evenodd" clip-rule="evenodd" d="m17.262 10.058-4.81 8.782c1.9 3.368 3.452 4.55 6.5 4.43 2.984-.118 6.42-4.178 4.485-7.652l-4.818-8.543c-.172.575-1.18 2.613-1.357 2.983zm-7.119 10.596C4.88 27.36-2.717 19.96.977 14.198c0 0 3.933-6.892 5.462-9.577C7.625 2.54 8.954 1.23 10.681.81c2.107-.512 4.574.602 5.889 2.633.914 1.411 1.723 2.703.297 5.144-.17.29-6.39 11.644-6.724 12.068zm.376-12.403c-1.439-.83-1.439-2.914 0-3.744 1.439-.83 3.247.213 3.247 1.872 0 1.66-1.808 2.702-3.247 1.872z" fill="#5FD788"/></g><defs><clipPath id="a"><path fill="#fff" d="M0 0h24v24H0z"/></clipPath></defs></svg>