<svg width="88" height="100" fill="none" xmlns="http://www.w3.org/2000/svg"><path d="M85.91 56.863h-3.615V52.94h3.614V49.02h-3.614v-5.883c0-.52-.19-1.019-.529-1.386a1.739 1.739 0 0 0-1.278-.574h-3.614v-5.883a14.604 14.604 0 0 0-1.99-7.38c-1.297-2.204-3.147-3.962-5.332-5.065l.175-.507a31.546 31.546 0 0 0-.21-21.11c-.209-.566-.648-.995-1.19-1.16a1.695 1.695 0 0 0-1.572.32l-4.337 3.53a35.26 35.26 0 0 1-10.254 5.83 33.522 33.522 0 0 1-11.43 2.013c-4.724 0-9.294 1.825-12.89 5.15-3.595 3.324-5.982 7.93-6.731 12.992-2.37.713-4.497 2.157-6.123 4.158-1.625 2.001-2.68 4.472-3.036 7.112H8.208c-.998 0-1.807.878-1.807 1.96v5.883H2.787v3.921h3.614v3.922H2.787c-.998 0-1.807.878-1.807 1.96v33.334c.003 2.08.765 4.073 2.12 5.544 1.355 1.47 3.192 2.296 5.108 2.299h72.28c1.917-.003 3.754-.83 5.11-2.3 1.353-1.47 2.116-3.463 2.118-5.543V58.824c0-.52-.19-1.02-.529-1.387a1.739 1.739 0 0 0-1.278-.574zM24.47 33.333h23.491v-3.921H24.878c.82-3.899 2.834-7.38 5.715-9.873 2.88-2.494 6.457-3.853 10.141-3.853a36.89 36.89 0 0 0 12.573-2.213 38.773 38.773 0 0 0 11.28-6.414l2.349-1.912a27.352 27.352 0 0 1-.593 15.818l-.26.754a11.704 11.704 0 0 0-1.858-.15h-9.034v3.922h9.034c2.396.002 4.692 1.036 6.386 2.874s2.647 4.33 2.65 6.93v5.882H15.617c.42-2.213 1.529-4.201 3.141-5.63 1.614-1.43 3.63-2.21 5.713-2.213zM10.015 52.942h16.263V49.02H10.015v-3.922h68.666v3.922h-5.42v3.921h5.42v3.922H10.015V52.94zm74.087 39.216c0 1.04-.382 2.036-1.06 2.771-.677.736-1.595 1.15-2.554 1.15H8.208c-.958 0-1.876-.414-2.554-1.15a4.1 4.1 0 0 1-1.06-2.771V60.785h79.508v31.372z" fill="#424B25"/><path d="M29.892 49.02h39.754v3.921H29.892V49.02zM44.348 88.235c2.396 0 4.694-1.032 6.39-2.87 1.693-1.84 2.645-4.334 2.645-6.933 0-2.6-.952-5.094-2.646-6.933-1.695-1.839-3.993-2.871-6.389-2.871-2.396 0-4.694 1.032-6.389 2.87-1.694 1.84-2.646 4.334-2.646 6.933.003 2.6.955 5.092 2.65 6.93 1.693 1.838 3.99 2.872 6.385 2.874zm0-15.686c1.438 0 2.817.62 3.834 1.723 1.016 1.103 1.587 2.6 1.587 4.16s-.571 3.056-1.587 4.159c-1.017 1.103-2.396 1.723-3.834 1.723-1.437 0-2.817-.62-3.833-1.723-1.016-1.103-1.588-2.6-1.588-4.16.002-1.56.574-3.055 1.59-4.157 1.016-1.103 2.394-1.723 3.831-1.725z" fill="#424B25"/></svg>