<svg width="15" height="14" viewBox="0 0 15 14" fill="none" xmlns="http://www.w3.org/2000/svg">
<path fill-rule="evenodd" clip-rule="evenodd" d="M5.97671 11.5C5.97671 12.328 6.64721 13 7.47671 13C8.30621 13 8.97671 12.328 8.97671 11.5V8.5009H11.9785C12.808 8.5009 13.4785 7.8289 13.4785 7.0009C13.4785 6.1729 12.808 5.5009 11.9785 5.5009H8.97671V2.5C8.97671 1.672 8.30621 1 7.47671 1C6.64721 1 5.97671 1.672 5.97671 2.5V5.5009H2.97852C2.14902 5.5009 1.47852 6.1729 1.47852 7.0009C1.47852 7.8289 2.14902 8.5009 2.97852 8.5009H5.97671V11.5Z" fill="#6F47EB"/>
<path d="M8.97671 8.5009V7.9009H8.37671V8.5009H8.97671ZM8.97671 5.5009H8.37671V6.1009H8.97671V5.5009ZM5.97671 5.5009V6.1009H6.57671V5.5009H5.97671ZM5.97671 8.5009H6.57671V7.9009H5.97671V8.5009ZM7.47671 12.4C6.97897 12.4 6.57671 11.997 6.57671 11.5H5.37671C5.37671 12.659 6.31545 13.6 7.47671 13.6V12.4ZM8.37671 11.5C8.37671 11.997 7.97445 12.4 7.47671 12.4V13.6C8.63797 13.6 9.57671 12.659 9.57671 11.5H8.37671ZM8.37671 8.5009V11.5H9.57671V8.5009H8.37671ZM11.9785 7.9009H8.97671V9.1009H11.9785V7.9009ZM12.8785 7.0009C12.8785 7.49792 12.4763 7.9009 11.9785 7.9009V9.1009C13.1398 9.1009 14.0785 8.15988 14.0785 7.0009H12.8785ZM11.9785 6.1009C12.4763 6.1009 12.8785 6.50388 12.8785 7.0009H14.0785C14.0785 5.84192 13.1398 4.9009 11.9785 4.9009V6.1009ZM8.97671 6.1009H11.9785V4.9009H8.97671V6.1009ZM8.37671 2.5V5.5009H9.57671V2.5H8.37671ZM7.47671 1.6C7.97445 1.6 8.37671 2.00298 8.37671 2.5H9.57671C9.57671 1.34102 8.63797 0.4 7.47671 0.4V1.6ZM6.57671 2.5C6.57671 2.00298 6.97897 1.6 7.47671 1.6V0.4C6.31545 0.4 5.37671 1.34102 5.37671 2.5H6.57671ZM6.57671 5.5009V2.5H5.37671V5.5009H6.57671ZM2.97852 6.1009H5.97671V4.9009H2.97852V6.1009ZM2.07852 7.0009C2.07852 6.50388 2.48078 6.1009 2.97852 6.1009V4.9009C1.81725 4.9009 0.878516 5.84192 0.878516 7.0009H2.07852ZM2.97852 7.9009C2.48078 7.9009 2.07852 7.49792 2.07852 7.0009H0.878516C0.878516 8.15988 1.81725 9.1009 2.97852 9.1009V7.9009ZM5.97671 7.9009H2.97852V9.1009H5.97671V7.9009ZM6.57671 11.5V8.5009H5.37671V11.5H6.57671Z" fill="#EEE9FD"/>
</svg>
